{
	"asset":{
		"version":"2.0",
		"generator":"Created using the official Cinema 4D glTF Exporter 1.000x284978"
	},
	"scenes":[{
		"nodes":[0]
	}],
	"nodes":[{
		"name":"ring_test",
		"translation":[0.0,
		0.0,
		0.0],
		"rotation":[0.0,
		0.0,
		0.0,
		-1.0],
		"scale":[4.0,
		4.0,
		4.0],
		"children":[1]
	},
	{
		"name":"circe",
		"mesh":0,
		"children":[2]
	},
	{
		"name":"Cylinder",
		"translation":[-3.9968028886505639e-15,
		2.137833833694458,
		-6.217248937900877e-15],
		"rotation":[0.0,
		0.0,
		0.0,
		-1.0],
		"scale":[1.0,
		1.0,
		1.0],
		"mesh":1
	}],
	"meshes":[{
		"name":"circe",
		"primitives":[{
			"attributes":{
				"POSITION":1,
				"NORMAL":2
			},
			"indices":0
		}]
	},
	{
		"name":"Cylinder",
		"primitives":[{
			"attributes":{
				"POSITION":4,
				"NORMAL":5,
				"TEXCOORD_0":6
			},
			"indices":3
		}]
	}],
	"accessors":[{
		"bufferView":0,
		"type":"SCALAR",
		"componentType":5123,
		"count":54546,
		"byteOffset":0,
		"min":[0],
		"max":[10344]
	},
	{
		"bufferView":1,
		"type":"VEC3",
		"componentType":5126,
		"count":10345,
		"byteOffset":0,
		"min":[-2.191509246826172,
		-2.1552398204803469,
		-1.632692575454712],
		"max":[2.1911439895629885,
		2.1554954051971437,
		1.6330397129058838]
	},
	{
		"bufferView":1,
		"type":"VEC3",
		"componentType":5126,
		"count":10345,
		"byteOffset":12,
		"min":[-1.0,
		-1.0,
		-1.0],
		"max":[1.0,
		1.0,
		1.0]
	},
	{
		"bufferView":2,
		"type":"SCALAR",
		"componentType":5123,
		"count":4224,
		"byteOffset":0,
		"min":[0],
		"max":[842]
	},
	{
		"bufferView":3,
		"type":"VEC3",
		"componentType":5126,
		"count":843,
		"byteOffset":0,
		"min":[-1.4343920946121216,
		-0.10880210995674133,
		-1.4343920946121216],
		"max":[1.4343920946121216,
		0.10880210995674133,
		1.4343920946121216]
	},
	{
		"bufferView":3,
		"type":"VEC3",
		"componentType":5126,
		"count":843,
		"byteOffset":12,
		"min":[-1.0,
		-1.0,
		-1.0],
		"max":[1.0,
		1.0,
		1.0]
	},
	{
		"bufferView":3,
		"type":"VEC2",
		"componentType":5126,
		"count":843,
		"byteOffset":24,
		"min":[0.0,
		0.0],
		"max":[1.0,
		1.0]
	}],
	"bufferViews":[{
		"buffer":0,
		"byteOffset":0,
		"byteLength":109092,
		"target":34963
	},
	{
		"buffer":0,
		"byteOffset":109092,
		"byteLength":248280,
		"target":34962,
		"byteStride":24
	},
	{
		"buffer":1,
		"byteOffset":0,
		"byteLength":8448,
		"target":34963
	},
	{
		"buffer":1,
		"byteOffset":8448,
		"byteLength":26976,
		"target":34962,
		"byteStride":32
	}],
	"buffers":[{
		"uri":"data:application/octet-stream;base64,",
		"byteLength":357372
	},
	{
		"uri":"data:application/octet-stream;base64,",
		"byteLength":35424
	}]
}