{
    "asset" : {
        "generator" : "Khronos glTF Blender I/O v1.7.33",
        "version" : "2.0"
    },
    "scene" : 0,
    "scenes" : [
        {
            "name" : "Scene",
            "nodes" : [
                1
            ]
        }
    ],
    "nodes" : [
        {
            "mesh" : 0,
            "name" : "Cylinder",
            "rotation" : [
                0,
                0,
                0,
                -1
            ],
            "translation" : [
                0,
                2.137833833694458,
                0
            ]
        },
        {
            "children" : [
                0
            ],
            "mesh" : 1,
            "name" : "circe",
            "rotation" : [
                0,
                0,
                0,
                -1
            ],
            "scale" : [
                4,
                4,
                4
            ],
            "translation" : [
                -0.2611537575721741,
                1.1049617528915405,
                1.3314781188964844
            ]
        }
    ],
    "materials" : [
        {
            "name" : "Plastic",
            "pbrMetallicRoughness" : {
                "baseColorFactor" : [
                    0,
                    0,
                    0,
                    1
                ],
                "roughnessFactor" : 0.30000001192092896
            }
        },
        {
            "name" : "Metal",
            "pbrMetallicRoughness" : {
                "baseColorFactor" : [
                    0.800000011920929,
                    0.800000011920929,
                    0.800000011920929,
                    1
                ],
                "roughnessFactor" : 0.25
            }
        }
    ],
    "meshes" : [
        {
            "name" : "Cylinder",
            "primitives" : [
                {
                    "attributes" : {
                        "POSITION" : 0,
                        "NORMAL" : 1,
                        "TEXCOORD_0" : 2
                    },
                    "indices" : 3,
                    "material" : 0
                }
            ]
        },
        {
            "name" : "circe",
            "primitives" : [
                {
                    "attributes" : {
                        "POSITION" : 4,
                        "NORMAL" : 5
                    },
                    "indices" : 6,
                    "material" : 1
                }
            ]
        }
    ],
    "accessors" : [
        {
            "bufferView" : 0,
            "componentType" : 5126,
            "count" : 843,
            "max" : [
                1.4343920946121216,
                0.10880210995674133,
                1.4343920946121216
            ],
            "min" : [
                -1.4343920946121216,
                -0.10880210995674133,
                -1.4343920946121216
            ],
            "type" : "VEC3"
        },
        {
            "bufferView" : 1,
            "componentType" : 5126,
            "count" : 843,
            "type" : "VEC3"
        },
        {
            "bufferView" : 2,
            "componentType" : 5126,
            "count" : 843,
            "type" : "VEC2"
        },
        {
            "bufferView" : 3,
            "componentType" : 5123,
            "count" : 4224,
            "type" : "SCALAR"
        },
        {
            "bufferView" : 4,
            "componentType" : 5126,
            "count" : 11731,
            "max" : [
                2.1911439895629883,
                2.1554954051971436,
                1.6330397129058838
            ],
            "min" : [
                -2.191509246826172,
                -2.1552398204803467,
                -1.632692575454712
            ],
            "type" : "VEC3"
        },
        {
            "bufferView" : 5,
            "componentType" : 5126,
            "count" : 11731,
            "type" : "VEC3"
        },
        {
            "bufferView" : 6,
            "componentType" : 5123,
            "count" : 54546,
            "type" : "SCALAR"
        }
    ],
    "bufferViews" : [
        {
            "buffer" : 0,
            "byteLength" : 10116,
            "byteOffset" : 0
        },
        {
            "buffer" : 0,
            "byteLength" : 10116,
            "byteOffset" : 10116
        },
        {
            "buffer" : 0,
            "byteLength" : 6744,
            "byteOffset" : 20232
        },
        {
            "buffer" : 0,
            "byteLength" : 8448,
            "byteOffset" : 26976
        },
        {
            "buffer" : 0,
            "byteLength" : 140772,
            "byteOffset" : 35424
        },
        {
            "buffer" : 0,
            "byteLength" : 140772,
            "byteOffset" : 176196
        },
        {
            "buffer" : 0,
            "byteLength" : 109092,
            "byteOffset" : 316968
        }
    ],
    "buffers" : [
        {
            "byteLength" : 426060,
            "uri" : "data:application/octet-stream;base64,"
        }
    ]
}
